<?xml version="1.0" encoding="UTF-8" standalone="no"?>
<!-- Created with Inkscape (http://www.inkscape.org/) -->

<svg
   xmlns:dc="http://purl.org/dc/elements/1.1/"
   xmlns:cc="http://creativecommons.org/ns#"
   xmlns:rdf="http://www.w3.org/1999/02/22-rdf-syntax-ns#"
   xmlns:svg="http://www.w3.org/2000/svg"
   xmlns="http://www.w3.org/2000/svg"
   xmlns:sodipodi="http://sodipodi.sourceforge.net/DTD/sodipodi-0.dtd"
   xmlns:inkscape="http://www.inkscape.org/namespaces/inkscape"
   width="252.79341"
   height="525.4024"
   viewBox="0 0 66.884922 139.01272"
   version="1.1"
   id="svg8"
   sodipodi:docname="saxchart.svg"
   inkscape:version="0.92.2 (5c3e80d, 2017-08-06)"
   inkscape:export-filename="C:\Users\Alex\Documents\Software dev (new)\saxophone-players-friend\svg\saxchart.svg.png"
   inkscape:export-xdpi="200.13181"
   inkscape:export-ydpi="200.13181">
  <defs
     id="defs2" />
  <sodipodi:namedview
     id="base"
     pagecolor="#ffffff"
     bordercolor="#666666"
     borderopacity="1.0"
     inkscape:pageopacity="0.0"
     inkscape:pageshadow="2"
     inkscape:zoom="0.98994949"
     inkscape:cx="-5.9209263"
     inkscape:cy="220.56359"
     inkscape:document-units="px"
     inkscape:current-layer="layer1"
     showgrid="false"
     showguides="true"
     inkscape:guide-bbox="true"
     inkscape:snap-smooth-nodes="true"
     inkscape:snap-center="true"
     inkscape:window-width="1206"
     inkscape:window-height="876"
     inkscape:window-x="121"
     inkscape:window-y="52"
     inkscape:window-maximized="0"
     units="px"
     fit-margin-top="25"
     fit-margin-left="25"
     fit-margin-right="25"
     fit-margin-bottom="25" />
  <metadata
     id="metadata5">
    <rdf:RDF>
      <cc:Work
         rdf:about="">
        <dc:format>image/svg+xml</dc:format>
        <dc:type
           rdf:resource="http://purl.org/dc/dcmitype/StillImage" />
        <dc:title />
      </cc:Work>
    </rdf:RDF>
  </metadata>
  <g
     inkscape:label="Layer 1"
     inkscape:groupmode="layer"
     id="layer1"
     transform="translate(-72.66693,-68.734998)">
    <path
       style="opacity:1;vector-effect:none;fill:none;fill-opacity:1;stroke:#000000;stroke-width:0.5291667;stroke-linecap:butt;stroke-linejoin:miter;stroke-miterlimit:4;stroke-dasharray:none;stroke-dashoffset:0;stroke-opacity:1"
       d="m 105.40811,92.32589 a 5.6696429,5.6696429 0 0 1 -5.669638,5.669643 5.6696429,5.6696429 0 0 1 -5.669643,-5.669643 5.6696429,5.6696429 0 0 1 5.669643,-5.669643 5.6696429,5.6696429 0 0 1 5.669638,5.669643 z"
       id="sf-sax-l1"
       class="sf-sax-left sf-sax-key sf-sax-l1"
       inkscape:connector-curvature="0" />
    <path
       style="opacity:1;vector-effect:none;fill:none;fill-opacity:1;stroke:#000000;stroke-width:0.5291667;stroke-linecap:butt;stroke-linejoin:miter;stroke-miterlimit:4;stroke-dasharray:none;stroke-dashoffset:0;stroke-opacity:1"
       d="m 105.40811,108.44135 a 5.6696429,5.6696429 0 0 1 -5.669638,5.66965 5.6696429,5.6696429 0 0 1 -5.669643,-5.66965 5.6696429,5.6696429 0 0 1 5.669643,-5.66964 5.6696429,5.6696429 0 0 1 5.669638,5.66964 z"
       id="sf-sax-l2"
       class="sf-sax-left sf-sax-key sf-sax-l2"
       inkscape:connector-curvature="0" />
    <path
       style="opacity:1;vector-effect:none;fill:none;fill-opacity:1;stroke:#000000;stroke-width:0.5291667;stroke-linecap:butt;stroke-linejoin:miter;stroke-miterlimit:4;stroke-dasharray:none;stroke-dashoffset:0;stroke-opacity:1"
       d="m 105.40811,124.26488 a 5.6696429,5.6696429 0 0 1 -5.669638,5.66964 5.6696429,5.6696429 0 0 1 -5.669643,-5.66964 5.6696429,5.6696429 0 0 1 5.669643,-5.66965 5.6696429,5.6696429 0 0 1 5.669638,5.66965 z"
       id="sf-sax-l3"
       class="sf-sax-left sf-sax-key sf-sax-l3"
       inkscape:connector-curvature="0" />
    <path
       style="opacity:1;vector-effect:none;fill:none;fill-opacity:1;stroke:#000000;stroke-width:0.5291667;stroke-linecap:butt;stroke-linejoin:miter;stroke-miterlimit:4;stroke-dasharray:none;stroke-dashoffset:0;stroke-opacity:1"
       d="m 112.16444,100.2634 a 3.5907738,3.5907738 0 0 1 -3.59078,3.59077 3.5907738,3.5907738 0 0 1 -3.59077,-3.59077 3.5907738,3.5907738 0 0 1 3.59077,-3.590777 3.5907738,3.5907738 0 0 1 3.59078,3.590777 z"
       id="sf-sax-l6"
       class="sf-sax-left sf-sax-key sf-sax-l6"
       inkscape:connector-curvature="0" />
    <path
       transform="rotate(54.702106)"
       style="opacity:1;vector-effect:none;fill:none;fill-opacity:1;stroke:#000000;stroke-width:0.5291667;stroke-linecap:butt;stroke-linejoin:miter;stroke-miterlimit:4;stroke-dasharray:none;stroke-dashoffset:0;stroke-opacity:1"
       d="m 125.73204,-35.195431 a 2.8348215,6.3783484 0 0 1 -2.83482,6.378349 2.8348215,6.3783484 0 0 1 -2.83482,-6.378349 2.8348215,6.3783484 0 0 1 2.83482,-6.378348 2.8348215,6.3783484 0 0 1 2.83482,6.378348 z"
       id="sf-sax-l4"
       class="sf-sax-left sf-sax-key sf-sax-l4"
       inkscape:connector-curvature="0" />
    <path
       transform="matrix(0.97809286,-0.20816908,0.21049393,0.97759516,0,0)"
       style="opacity:1;vector-effect:none;fill:none;fill-opacity:1;stroke:#000000;stroke-width:0.52916741;stroke-linecap:butt;stroke-linejoin:miter;stroke-miterlimit:4;stroke-dasharray:none;stroke-dashoffset:0;stroke-opacity:1"
       d="m 103.56827,108.93925 a 3.2548652,7.292407 0 0 1 -3.25486,7.2924 3.2548652,7.292407 0 0 1 -3.254867,-7.2924 3.2548652,7.292407 0 0 1 3.254867,-7.29241 3.2548652,7.292407 0 0 1 3.25486,7.29241 z"
       id="sf-sax-l8"
       class="sf-sax-left sf-sax-key sf-sax-l8"
       inkscape:connector-curvature="0" />
    <path
       transform="matrix(0.98114105,-0.19329314,0.19562529,0.98067872,0,0)"
       style="opacity:1;vector-effect:none;fill:none;fill-opacity:1;stroke:#000000;stroke-width:0.52916741;stroke-linecap:butt;stroke-linejoin:miter;stroke-miterlimit:4;stroke-dasharray:none;stroke-dashoffset:0;stroke-opacity:1"
       d="m 111.43706,117.73213 a 3.2548652,7.292407 0 0 1 -3.25486,7.29241 3.2548652,7.292407 0 0 1 -3.25487,-7.29241 3.2548652,7.292407 0 0 1 3.25487,-7.29241 3.2548652,7.292407 0 0 1 3.25486,7.29241 z"
       id="sf-sax-l9"
       class="sf-sax-left sf-sax-key sf-sax-l9"
       inkscape:connector-curvature="0" />
    <path
       transform="matrix(0.9753135,-0.22082478,0.22315572,0.97478281,0,0)"
       style="opacity:1;vector-effect:none;fill:none;fill-opacity:1;stroke:#000000;stroke-width:0.52916741;stroke-linecap:butt;stroke-linejoin:miter;stroke-miterlimit:4;stroke-dasharray:none;stroke-dashoffset:0;stroke-opacity:1"
       d="m 96.343786,121.27818 a 3.3462889,7.4970341 0 0 1 -3.346288,7.49704 3.3462889,7.4970341 0 0 1 -3.346289,-7.49704 3.3462889,7.4970341 0 0 1 3.346289,-7.49703 3.3462889,7.4970341 0 0 1 3.346288,7.49703 z"
       id="sf-sax-l7"
       class="sf-sax-left sf-sax-key sf-sax-l7"
       inkscape:connector-curvature="0" />
    <path
       style="fill:none;stroke:#000000;stroke-width:0.52916664;stroke-linecap:butt;stroke-linejoin:miter;stroke-miterlimit:4;stroke-dasharray:none;stroke-dashoffset:0;stroke-opacity:1"
       d="M 94.541294,135.98214 H 104.6994"
       id="sf-sax-separator"
       inkscape:connector-curvature="0" />
    <path
       style="fill:none;stroke:#000000;stroke-width:0.5291667;stroke-linecap:butt;stroke-linejoin:miter;stroke-miterlimit:4;stroke-dasharray:none;stroke-opacity:1"
       d="m 82.12941,84.714943 c 0.392552,-0.21298 7.261957,4.965114 8.065158,9.122853 0.431921,1.953555 0.589108,3.875704 -0.86226,5.291667 -0.784507,-0.05989 -0.52402,-2.639491 -2.740326,-3.96875 -0.99251,-0.57096 -2.14974,-0.696893 -2.82301,-0.944941 -0.636564,-1.212691 -2.016413,-7.4229 -2.058596,-9.148316 -0.0074,-0.304199 0.419034,-0.352513 0.419034,-0.352513 z"
       id="sf-sax-l5"
       class="sf-sax-left sf-sax-key sf-sax-l5"
       inkscape:connector-curvature="0"
       sodipodi:nodetypes="cccccsc" />
    <path
       style="opacity:1;vector-effect:none;fill:none;fill-opacity:1;stroke:#000000;stroke-width:0.5291667;stroke-linecap:butt;stroke-linejoin:miter;stroke-miterlimit:4;stroke-dasharray:none;stroke-dashoffset:0;stroke-opacity:1"
       d="m 81.451473,121.20402 h 1.999089 c 1.055578,0 1.905376,0.8498 1.905376,1.90537 v 5.60942 c 0,1.05557 -0.849798,1.90537 -1.905376,1.90537 h -1.999089 c -1.055579,0 -1.905376,-0.8498 -1.905376,-1.90537 v -5.60942 c 0,-1.05557 0.849797,-1.90537 1.905376,-1.90537 z"
       id="sf-sax-r6"
       class="sf-sax-right sf-sax-key sf-sax-r6"
       inkscape:connector-curvature="0" />
    <path
       style="opacity:1;vector-effect:none;fill:none;fill-opacity:1;stroke:#000000;stroke-width:0.5291667;stroke-linecap:butt;stroke-linejoin:miter;stroke-miterlimit:4;stroke-dasharray:none;stroke-dashoffset:0;stroke-opacity:1"
       d="m 81.451473,131.89479 h 1.999089 c 1.055578,0 1.905376,0.8498 1.905376,1.90538 v 5.60941 c 0,1.05558 -0.849798,1.90537 -1.905376,1.90537 h -1.999089 c -1.055579,0 -1.905376,-0.84979 -1.905376,-1.90537 v -5.60941 c 0,-1.05558 0.849797,-1.90538 1.905376,-1.90538 z"
       id="sf-sax-r7"
       class="sf-sax-right sf-sax-key sf-sax-r7"
       inkscape:connector-curvature="0" />
    <path
       style="opacity:1;vector-effect:none;fill:none;fill-opacity:1;stroke:#000000;stroke-width:0.5291667;stroke-linecap:butt;stroke-linejoin:miter;stroke-miterlimit:4;stroke-dasharray:none;stroke-dashoffset:0;stroke-opacity:1"
       d="m 81.451473,142.48071 h 1.999089 c 1.055578,0 1.905376,0.8498 1.905376,1.90538 v 5.60941 c 0,1.05558 -0.849798,1.90538 -1.905376,1.90538 h -1.999089 c -1.055579,0 -1.905376,-0.8498 -1.905376,-1.90538 v -5.60941 c 0,-1.05558 0.849797,-1.90538 1.905376,-1.90538 z"
       id="sf-sax-r8"
       class="sf-sax-right sf-sax-key sf-sax-r8"
       inkscape:connector-curvature="0" />
    <path
       style="opacity:1;vector-effect:none;fill:none;fill-opacity:1;stroke:#000000;stroke-width:0.5291667;stroke-linecap:butt;stroke-linejoin:miter;stroke-miterlimit:4;stroke-dasharray:none;stroke-dashoffset:0;stroke-opacity:1"
       d="m 105.40811,147.32907 a 5.6696429,5.6696429 0 0 1 -5.669638,5.66964 5.6696429,5.6696429 0 0 1 -5.669643,-5.66964 5.6696429,5.6696429 0 0 1 5.669643,-5.66964 5.6696429,5.6696429 0 0 1 5.669638,5.66964 z"
       id="sf-sax-r1"
       class="sf-sax-right sf-sax-key sf-sax-r1"
       inkscape:connector-curvature="0" />
    <path
       style="opacity:1;vector-effect:none;fill:none;fill-opacity:1;stroke:#000000;stroke-width:0.5291667;stroke-linecap:butt;stroke-linejoin:miter;stroke-miterlimit:4;stroke-dasharray:none;stroke-dashoffset:0;stroke-opacity:1"
       d="m 105.40811,163.81064 a 5.6696429,5.6696429 0 0 1 -5.669638,5.66964 5.6696429,5.6696429 0 0 1 -5.669643,-5.66964 5.6696429,5.6696429 0 0 1 5.669643,-5.66964 5.6696429,5.6696429 0 0 1 5.669638,5.66964 z"
       id="sf-sax-r2"
       class="sf-sax-right sf-sax-key sf-sax-r2"
       inkscape:connector-curvature="0" />
    <path
       style="opacity:1;vector-effect:none;fill:none;fill-opacity:1;stroke:#000000;stroke-width:0.5291667;stroke-linecap:butt;stroke-linejoin:miter;stroke-miterlimit:4;stroke-dasharray:none;stroke-dashoffset:0;stroke-opacity:1"
       d="m 105.40811,179.4494 a 5.6696429,5.6696429 0 0 1 -5.669638,5.66964 5.6696429,5.6696429 0 0 1 -5.669643,-5.66964 5.6696429,5.6696429 0 0 1 5.669643,-5.66964 5.6696429,5.6696429 0 0 1 5.669638,5.66964 z"
       id="sf-sax-r3"
       class="sf-sax-right sf-sax-key sf-sax-r3"
       inkscape:connector-curvature="0" />
    <path
       style="opacity:1;vector-effect:none;fill:none;fill-opacity:1;stroke:#000000;stroke-width:2;stroke-linecap:butt;stroke-linejoin:miter;stroke-miterlimit:4;stroke-dasharray:none;stroke-dashoffset:0;stroke-opacity:1"
       d="m 376.96484,709.66211 a 25.178568,21.428572 0 0 0 -25.17968,21.42969 25.178568,21.428572 0 0 0 0.0351,0.83593 h 50.27344 a 25.178568,21.428572 0 0 0 0.0488,-0.83593 25.178568,21.428572 0 0 0 -25.17774,-21.42969 z"
       transform="scale(0.26458333)"
       id="sf-sax-r4"
       class="sf-sax-right sf-sax-key sf-sax-r4"
       inkscape:connector-curvature="0" />
    <path
       inkscape:connector-curvature="0"
       style="opacity:1;vector-effect:none;fill:none;fill-opacity:1;stroke:#000000;stroke-width:0.5291667;stroke-linecap:butt;stroke-linejoin:miter;stroke-miterlimit:4;stroke-dasharray:none;stroke-dashoffset:0;stroke-opacity:1"
       d="m 99.738203,200.86855 a 6.6618294,5.669643 0 0 0 6.662127,-5.66994 6.6618294,5.669643 0 0 0 -0.009,-0.22118 H 93.089516 a 6.6618294,5.669643 0 0 0 -0.0129,0.22118 6.6618294,5.669643 0 0 0 6.661607,5.66994 z"
       id="sf-sax-r5"
       class="sf-sax-right sf-sax-key sf-sax-r5" />
    <path
       style="opacity:1;vector-effect:none;fill:none;fill-opacity:1;stroke:#000000;stroke-width:2;stroke-linecap:butt;stroke-linejoin:miter;stroke-miterlimit:4;stroke-dasharray:none;stroke-dashoffset:0;stroke-opacity:1"
       d="m 336.00195,571.73438 c -1.60892,-10e-6 -2.90429,1.29537 -2.90429,2.90429 0,0 0.17858,14.26479 -0.22321,17.72461 -0.0446,1.16071 -6.25336,16.4961 -6.25336,16.4961 -0.58799,1.49762 -0.23581,4.0615 1.26182,4.6495 l 11.7539,4.61328 c 1.49763,0.588 4.09215,-0.93759 4.68015,-2.43521 9.51086,-15.27801 7.96637,-25.46092 7.21624,-41.04828 -0.0717,-1.60732 -1.29537,-2.90429 -2.90429,-2.90429 z"
       transform="scale(0.26458333)"
       id="sf-sax-r9"
       class="sf-sax-right sf-sax-key sf-sax-r9"
       inkscape:connector-curvature="0"
       sodipodi:nodetypes="csccccccsc" />
    <path
       style="opacity:1;vector-effect:none;fill:none;fill-opacity:1;stroke:#000000;stroke-width:2;stroke-linecap:butt;stroke-linejoin:miter;stroke-miterlimit:4;stroke-dasharray:none;stroke-dashoffset:0;stroke-opacity:1"
       d="m 329.86914,626.0293 c -1.56881,0 -2.83203,1.26322 -2.83203,2.83203 v 19.73047 19.73047 c 0,1.5688 1.26322,2.83203 2.83203,2.83203 H 341.125 c 1.56881,0 3.49956,-4.20737 3.85938,-5.73438 2.08888,-6.81664 1.53347,-7.96623 6.61132,-11.25 v -5.57812 -5.57813 c -5.07785,-3.28376 -4.52245,-4.43338 -6.61132,-11.25 -0.3598,-1.52701 -2.29057,-5.73437 -3.85938,-5.73437 z"
       transform="scale(0.26458333)"
       id="sf-sax-r10"
       class="sf-sax-right sf-sax-key sf-sax-r10"
       inkscape:connector-curvature="0" />
    <path
       style="opacity:1;vector-effect:none;fill:none;fill-opacity:1;stroke:#000000;stroke-width:2;stroke-linecap:butt;stroke-linejoin:miter;stroke-miterlimit:4;stroke-dasharray:none;stroke-dashoffset:0;stroke-opacity:1"
       d="m 431.33594,472.75977 c -1.38621,0.008 -2.85196,0.0296 -4.29688,0.0723 -4.93408,0.14562 -9.42524,0.35998 -11.81445,3.10938 -1.88451,2.34819 -2.16869,5.90272 -1.00781,8.09375 5.68061,3.83449 16.68165,7.73828 24.71875,7.55664 8.03709,0.18164 19.03815,-3.72216 24.71875,-7.55664 1.16088,-2.19103 0.87669,-5.74557 -1.00782,-8.09375 -2.38922,-2.74946 -6.88035,-2.96387 -11.81445,-3.10938 -5.77965,-0.17061 -11.89648,0 -11.89648,0 0,0 -3.44099,-0.0963 -7.59961,-0.0723 z"
       transform="scale(0.26458333)"
       id="sf-sax-l10"
       class="sf-sax-left sf-sax-key sf-sax-l10"
       inkscape:connector-curvature="0" />
    <path
       style="opacity:1;vector-effect:none;fill:none;fill-opacity:1;stroke:#000000;stroke-width:0.5291667;stroke-linecap:butt;stroke-linejoin:miter;stroke-miterlimit:4;stroke-dasharray:none;stroke-dashoffset:0;stroke-opacity:1"
       d="m 108.07422,134.50165 c -0.15991,-1.14931 -0.25211,-2.4176 0.23719,-3.49899 0.65487,-1.53719 1.94191,-0.80241 2.67541,-0.57767 0,0 3.14056,1.02662 4.11046,1.7897 0.33296,0.28813 0.54315,3.11777 -0.58488,4.07851 -1.17726,0.73709 -3.3479,0.47102 -4.6619,0.49762 -1.31088,-0.13604 -1.67123,-1.12268 -1.77628,-2.28917 z"
       id="sf-sax-l11"
       class="sf-sax-left sf-sax-key sf-sax-l11"
       inkscape:connector-curvature="0"
       sodipodi:nodetypes="ccccccc" />
    <path
       style="opacity:1;vector-effect:none;fill:none;fill-opacity:1;stroke:#000000;stroke-width:0.5291667;stroke-linecap:butt;stroke-linejoin:miter;stroke-miterlimit:4;stroke-dasharray:none;stroke-dashoffset:0;stroke-opacity:1"
       d="m 124.15436,134.6028 c 0.15991,-1.14931 0.25211,-2.4176 -0.23719,-3.49899 -0.65487,-1.53719 -1.94191,-0.80241 -2.67541,-0.57767 0,0 -3.14056,1.02662 -4.11046,1.7897 -0.33296,0.28813 -0.54315,3.11777 0.58488,4.07851 1.17726,0.73709 3.3479,0.47102 4.6619,0.49762 1.31088,-0.13604 1.67123,-1.12268 1.77628,-2.28917 z"
       id="sf-sax-l12"
       class="sf-sax-left sf-sax-key sf-sax-l12"
       inkscape:connector-curvature="0"
       sodipodi:nodetypes="ccccccc" />
    <path
       style="opacity:1;vector-effect:none;fill:none;fill-opacity:1;stroke:#000000;stroke-width:2;stroke-linecap:butt;stroke-linejoin:miter;stroke-miterlimit:4;stroke-dasharray:none;stroke-dashoffset:0;stroke-opacity:1"
       d="m 431.33594,522.38867 c -1.38622,0.008 -2.85196,0.0335 -4.29688,0.0781 -4.9341,0.15874 -10.30999,-0.55494 -12.69922,2.44336 -1.88451,2.56063 -2.04149,8.14145 -0.12304,10.97265 5.68063,4.18141 16.68166,7.2391 24.71875,7.04102 8.03709,0.19808 19.03812,-2.85961 24.71875,-7.04102 1.9183,-2.8312 1.76146,-8.41202 -0.12305,-10.97265 -2.38923,-2.9983 -7.76512,-2.28462 -12.69922,-2.44336 -1.44491,-0.0442 -2.91066,-0.0706 -4.29687,-0.0781 -4.15862,-0.0265 -7.59961,0.0781 -7.59961,0.0781 0,0 -3.441,-0.10461 -7.59961,-0.0781 z"
       transform="scale(0.26458333)"
       id="sf-sax-l13"
       class="sf-sax-left sf-sax-key sf-sax-l13"
       inkscape:connector-curvature="0" />
  </g>
</svg>
